# AST/ASF file generated using VICON BodyLanguage
# -----------------------------------------------
:version 1.10
:name VICON
:units
  mass 1.0
  length 0.45
  angle deg
:documentation
   .ast/.asf automatically generated from VICON data using
   VICON BodyBuilder and BodyLanguage model FoxedUp or BRILLIANT.MOD
:root
   order TX TY TZ RX RY RZ
   axis XYZ
   position 0 0 0  
   orientation 0 0 0 
:bonedata
  begin
     id 1 
     name lhipjoint
     direction 0.588788 -0.725889 0.355548 
     length 2.37778 
     axis 0 0 0  XYZ
  end
  begin
     id 2 
     name lfemur
     direction 0.34202 -0.939693 0  
     length 6.86393  
     axis 0 0 20  XYZ
    dof rx ry rz
    limits (-160.0 20.0)
           (-70.0 70.0)
           (-60.0 70.0)
  end
  begin
     id 3 
     name ltibia
     direction 0.34202 -0.939693 0   
     length 7.32851   
     axis 0 0 20   XYZ
    dof rx
    limits (-10.0 170.0)
  end
  begin
     id 4 
     name lfoot
     direction 0.0626533 -0.172138 0.983078   
     length 1.98929   
     axis -90 7.62852e-016 20   XYZ
    dof rx rz
    limits (-45.0 90.0)
           (-70.0 20.0)
  end
  begin
     id 5 
     name ltoes
     direction 1.53647e-011 -4.21734e-011 1   
     length 1.00479   
     axis -90 7.62852e-016 20   XYZ
    dof rx
    limits (-90.0 20.0)
  end
  begin
     id 6 
     name rhipjoint
     direction -0.59141 -0.724168 0.354705   
     length 2.38343  
     axis 0 0 0  XYZ 
  end
  begin
     id 7 
     name rfemur
     direction -0.34202 -0.939693 0   
     length 6.95589   
     axis 0 0 -20   XYZ
    dof rx ry rz
    limits (-160.0 20.0)
           (-70.0 70.0)
           (-70.0 60.0)
  end
  begin
     id 8 
     name rtibia
     direction -0.34202 -0.939693 0   
     length 7.32327   
     axis 0 0 -20   XYZ
    dof rx
    limits (-10.0 170.0)
 end
 begin
     id 9 
     name rfoot
     direction -0.0660461 -0.18146 0.981178   
     length 1.85272  
     axis -90 -7.62852e-016 -20   XYZ
    dof rx rz
    limits (-45.0 90.0)
           (-20.0 70.0)
  end
  begin
     id 10 
     name rtoes
     direction -1.53586e-011 -4.21988e-011 1   
     length 0.93746   
     axis -90 -7.62852e-016 -20   XYZ
    dof rx
    limits (-90.0 20.0)
  end
  begin
     id 11 
     name lowerback
     direction -0.0107982 0.991059 0.13299   
     length 1.98691   
     axis 0 0 0   XYZ
    dof rx ry rz
    limits (-20.0 45.0)
           (-30.0 30.0)
           (-30.0 30.0)
  end
  begin
     id 12 
     name upperback
     direction 0.0076296 0.999916 0.0104576   
     length 1.99501   
     axis 0 0 0   XYZ
    dof rx ry rz
    limits (-20.0 45.0)
           (-30.0 30.0)
           (-30.0 30.0)
  end
  begin
     id 13 
     name thorax
     direction 0.01176 0.998615 -0.0512909   
     length 2.03144   
     axis 0 0 0   XYZ
    dof rx ry rz
    limits (-20.0 45.0)
           (-30.0 30.0)
           (-30.0 30.0)
  end
  begin
     id 14 
     name lowerneck
     direction -0.0171909 0.999644 0.0204011   
     length 1.71818   
     axis 0 0 0   XYZ
    dof rx ry rz
    limits (-20.0 45.0)
           (-30.0 30.0)
           (-30.0 30.0)
  end
  begin
     id 15 
     name upperneck
     direction 0.0250902 0.997482 -0.0663316   
     length 1.66199   
     axis 0 0 0   XYZ
    dof rx ry rz
    limits (-20.0 45.0)
           (-30.0 30.0)
           (-30.0 30.0)
  end
  begin
     id 16
     name head
     direction 0.00881535 0.99956 -0.0283365  
     length 1.81545  
     axis 0 0 0   XYZ
    dof rx ry rz
    limits (-20.0 45.0)
           (-30.0 30.0)
           (-30.0 30.0)
  end
  begin
     id 17 
     name lclavicle
     direction 0.840411 0.486876 -0.238035  
     length 3.30409  
     axis 0 0 0   XYZ
    dof ry rz
    limits (-20.0 10.0)
           (0.0 20.0)
  end
  begin
     id 18 
     name lhumerus
     direction 1 -4.48977e-011 -5.16239e-027   
     length 4.62672   
     axis 180 -30 -90   XYZ
    dof rx ry rz
    limits (-60.0 90.0)
           (-90.0 90.0)
           (-90.0 90.0)
  end
  begin
     id 19
     name lradius
     direction 1 -4.48977e-011 -8.71171e-027   
     length 3.11018   
     axis 180 -30 -90   XYZ
    dof rx
    limits (-10.0 170.0)
  end
  begin
     id 20
     name lwrist
     direction 1 -4.48912e-011 -1.03764e-026   
     length 1.55509   
     axis 9.09556e-015 90 90   XYZ
    dof ry
    limits (-180.0 0.0)
 end
  begin
     id 21 
     name lhand
     direction 1 -4.49072e-011 -2.07528e-026   
     length 0.743834   
     axis 1.3242e-014 90 90   XYZ
    dof rx rz
    limits (-90.0 90.0)
           (-45.0 45.0)
  end
  begin
     id 22 
     name lfingers
     direction 1 -4.48909e-011 -4.15056e-026   
     length 0.599698   
     axis 2.64841e-014 90 90   XYZ
    dof rx
    limits (0.0 90.0)
  end
  begin
     id 23
     name lthumb
     direction 0.707107 -6.35013e-011 0.707107   
     length 0.86105   
     axis -90 45 2.85299e-015   XYZ
    dof rx rz
    limits (-45.0 45.0)
           (-45.0 45.0)
  end
  begin
     id 24 
     name rclavicle
     direction -0.835208 0.500237 -0.228452   
     length 3.2716  
     axis 0 0 0   XYZ 
    dof ry rz
    limits (-10.0 20.0)
           (-20.0 0.0)
  end
  begin
     id 25 
     name rhumerus
     direction -1 -4.48978e-011 -5.1953e-028  
     length 4.55919   
     axis 180 30 90   XYZ
    dof rx ry rz
    limits (-90.0 60.0)
           (-90.0 90.0)
           (-90.0 90.0)
  end
  begin
     id 26 
     name rradius
     direction -1 -4.48961e-011 -5.99546e-027   
     length 3.22748   
     axis 180 30 90   XYZ
    dof rx
    limits (-10.0 170.0)
  end
  begin
     id 27 
     name rwrist
     direction -1 -4.48986e-011 -1.03764e-026   
     length 1.61374   
     axis 9.09556e-015 -90 -90   XYZ
    dof ry
    limits (-180.0 0.0)
  end
  begin
     id 28
     name rhand
     direction -1 -4.4899e-011 -2.07528e-026   
     length 0.700882   
     axis 1.3242e-014 -90 -90   XYZ
    dof rx rz
    limits (-90.0 90.0)
           (-45.0 45.0)
  end
  begin
     id 29
     name rfingers
     direction -1 -4.48991e-011 -4.15056e-026   
     length 0.565069   
     axis 2.64841e-014 -90 -90   XYZ
    dof rx
    limits (0.0 90.0)
  end
  begin
     id 30
     name rthumb
     direction -0.707107 -6.34804e-011 0.707107   
     length 0.811329   
     axis -90 -45 -2.85299e-015   XYZ
    dof rx rz
    limits (-45.0 45.0)
           (-45.0 45.0)
  end
:hierarchy
  begin
    root lhipjoint rhipjoint lowerback
    lhipjoint lfemur
    lfemur ltibia
    ltibia lfoot
    lfoot ltoes
    rhipjoint rfemur
    rfemur rtibia
    rtibia rfoot
    rfoot rtoes
    lowerback upperback
    upperback thorax
    thorax lowerneck lclavicle rclavicle
    lowerneck upperneck
    upperneck head
    lclavicle lhumerus
    lhumerus lradius
    lradius lwrist
    lwrist lhand lthumb
    lhand lfingers
    rclavicle rhumerus
    rhumerus rradius
    rradius rwrist
    rwrist rhand rthumb
    rhand rfingers
  end

#!OML:ASF F:\VICON\USERDATA\INSTALL\SteveWalk\SteveWalk.ASF
:FULLY-SPECIFIED
:DEGREES
206
root -0.420583 16.3813 0.586455 16.6494 -4.82815 3.52725
lowerback -15.7724 0.388927 -5.51314
upperback -4.99628 1.4689 -2.55064
thorax 3.44724 0.721215 0.698007
lowerneck -6.10045 -0.700221 -0.414163
upperneck 10.4536 -1.23655 3.01325
head 4.58929 -0.472149 1.0241
rclavicle -5.31128e-016 -6.36111e-015
rhumerus -37.6515 -2.88429 -88.2454
rradius 42.4737
rwrist -17.8568
rhand -19.124 -30.0372
rfingers 7.12502
rthumb 7.1855 -59.8952
lclavicle -5.31128e-016 -6.36111e-015
lhumerus -64.3483 37.6968 38.7347
lradius 11.1189
lwrist -52.6843
lhand -11.8013 -13.9249
lfingers 7.12502
lthumb 14.2485 15.5663
rfemur -28.8896 -6.01785 15.0114
rtibia 75.2046
rfoot 2.5419 6.69203
rtoes -10.8874
lfemur -37.3382 0.169868 -27.9438
ltibia 36.0752
lfoot -14.533 -0.266246
ltoes -4.76711
207
root -0.424388 16.4061 0.783741 16.5097 -4.44613 3.12558
lowerback -15.6041 0.265397 -5.13761
upperback -5.00029 1.22644 -2.32291
thorax 3.36975 0.603859 0.681081
lowerneck -5.78951 -0.646315 -0.510092
upperneck 10.4936 -1.1543 3.0182
head 4.53969 -0.437488 1.04766
rclavicle -5.76476e-015 -6.36111e-015
rhumerus -38.5456 -3.65745 -87.9103
rradius 40.5112
rwrist -16.9266
rhand -18.2844 -32.9213
rfingers 7.12502
rthumb 7.99583 -62.7501
lclavicle -5.76476e-015 -6.36111e-015
lhumerus -61.3043 37.2767 42.5118
lradius 11.314
lwrist -50.3698
lhand -12.5947 -14.6211
lfingers 7.12502
lthumb 13.4839 14.9224
rfemur -30.3304 -6.07024 15.7979
rtibia 75.8605
rfoot 1.0234 5.79839
rtoes -11.2563
lfemur -36.1716 0.0701952 -27.4481
ltibia 35.7823
lfoot -15.2144 -0.335284
ltoes -4.02293
208
root -0.43077 16.4194 0.970677 16.3729 -4.50985 2.76762
lowerback -15.3129 0.270456 -4.91903
upperback -5.10109 1.16528 -2.10584
thorax 3.11089 0.581016 0.771443
lowerneck -5.60169 -0.631012 -0.480938
upperneck 10.8228 -1.12105 2.80718
head 4.61806 -0.429463 0.974582
rclavicle -8.34274e-015 3.97569e-015
rhumerus -39.5928 -4.49895 -87.4135
rradius 38.5945
rwrist -15.5522
rhand -16.5827 -35.0637
rfingers 7.12502
rthumb 9.63797 -64.8233
lclavicle -8.34274e-015 3.97569e-015
lhumerus -57.5809 35.8322 47.5084
lradius 11.6252
lwrist -46.6106
lhand -12.9604 -14.3936
lfingers 7.12502
lthumb 13.1314 15.173
rfemur -31.9914 -5.64496 16.4529
rtibia 76.3196
rfoot -0.00312672 4.99538
rtoes -11.6531
lfemur -35.134 0.275704 -27.0794
ltibia 35.5002
lfoot -15.8417 -0.320888
ltoes -3.1826
209
root -0.430508 16.4396 1.16511 16.254 -4.3248 2.62371
lowerback -15.1527 0.207401 -4.82444
upperback -5.09835 1.05191 -1.95929
thorax 3.03272 0.527133 0.850722
lowerneck -5.61438 -0.607113 -0.349434
upperneck 11.1439 -1.07907 2.53744
head 4.73333 -0.414612 0.863498
rclavicle -7.51033e-015 1.74931e-014
rhumerus -40.302 -5.49109 -86.7971
rradius 36.4107
rwrist -14.1191
rhand -15.8838 -35.3099
rfingers 7.12502
rthumb 10.3122 -65.0371
lclavicle -7.51033e-015 1.74931e-014
lhumerus -53.6792 33.9702 52.6378
lradius 12.0274
lwrist -42.9072
lhand -13.0369 -13.7464
lfingers 7.12502
lthumb 13.0576 15.8249
rfemur -33.5113 -5.57169 16.8579
rtibia 76.4789
rfoot -0.492489 4.34164
rtoes -12.017
lfemur -34.0568 0.389908 -26.947
ltibia 35.2262
lfoot -16.4813 -0.558125
ltoes -2.40922
210
root -0.416501 16.4696 1.37154 16.0983 -3.71219 2.18364
lowerback -15.0103 0.0817264 -4.15718
upperback -5.04728 0.774483 -1.73514
thorax 3.03276 0.388124 0.662058
lowerneck -5.50763 -0.545994 -0.423769
upperneck 11.2656 -0.983201 2.4664
head 4.75437 -0.374212 0.858872
rclavicle -1.07282e-014 9.14409e-015
rhumerus -41.135 -6.29643 -86.1634
rradius 34.4004
rwrist -13.0208
rhand -16.0105 -35.5775
rfingers 7.12502
rthumb 10.1901 -65.3107
lclavicle -1.07282e-014 9.14409e-015
lhumerus -49.9548 31.4408 57.8904
lradius 12.8506
lwrist -38.5081
lhand -13.4718 -13.9795
lfingers 7.12502
lthumb 12.6383 15.6181
rfemur -34.5666 -5.89741 17.6087
rtibia 76.2695
rfoot -1.30184 3.80151
rtoes -12.5117
lfemur -32.8343 0.333043 -26.5054
ltibia 34.9572
lfoot -17.1906 -0.754552
ltoes -2.74392
211
root -0.406039 16.482 1.57143 15.9737 -3.3872 1.83218
lowerback -14.9366 0.0357861 -3.66468
upperback -5.06815 0.630631 -1.54136
thorax 2.98235 0.317157 0.562785
lowerneck -5.04772 -0.560553 -0.643794
upperneck 11.2982 -0.992914 2.56695
head 4.67527 -0.386239 0.931749
rclavicle -7.57867e-016 -2.26615e-014
rhumerus -42.1296 -7.23857 -85.3106
rradius 32.3356
rwrist -11.5949
rhand -16.1709 -35.2345
rfingers 7.12502
rthumb 10.0353 -64.9752
lclavicle -7.57867e-016 -2.26615e-014
lhumerus -46.8491 28.6864 62.39
lradius 13.8371
lwrist -34.5701
lhand -14.0922 -14.2765
lfingers 7.12502
lthumb 12.0402 15.3572
rfemur -35.7274 -6.0091 18.2334
rtibia 75.9488
rfoot -2.63813 3.36427
rtoes -14.7947
lfemur -31.7208 0.449752 -26.199
ltibia 34.7193
lfoot -17.8323 -0.977596
ltoes -2.05945
212
root -0.408829 16.4872 1.76757 15.7926 -3.21258 1.82585
lowerback -14.927 -0.0408411 -3.74466
upperback -4.96668 0.539108 -1.40916
thorax 3.08492 0.270347 0.731049
lowerneck -4.81796 -0.582413 -0.777852
upperneck 11.323 -1.01518 2.60837
head 4.6396 -0.40232 0.968517
rclavicle -1.57164e-015 1.03368e-014
rhumerus -42.8928 -8.71112 -84.0866
rradius 30.0356
rwrist -9.46772
rhand -15.826 -33.731
rfingers 7.12502
rthumb 10.368 -63.4554
lclavicle -1.57164e-015 1.03368e-014
lhumerus -44.0976 26.816 65.6534
lradius 14.4724
lwrist -32.1896
lhand -14.8706 -14.7633
lfingers 7.12502
lthumb 11.2895 14.9128
rfemur -36.9266 -5.982 18.5277
rtibia 75.4986
rfoot -3.95325 2.88131
rtoes -15.7455
lfemur -30.6525 0.719301 -26.2622
ltibia 34.5745
lfoot -18.3636 -1.17925
ltoes -1.85774
213
root -0.407797 16.4901 1.96835 15.7229 -2.93494 1.73332
lowerback -14.9853 -0.143274 -3.70674
upperback -4.87939 0.397351 -1.22984
thorax 3.21265 0.19812 0.873744
lowerneck -4.82649 -0.561303 -0.894645
upperneck 11.4168 -0.976297 2.59466
head 4.67589 -0.38834 0.987716
rclavicle 7.49791e-015 -3.57812e-015
rhumerus -43.5752 -10.2174 -82.6544
rradius 27.7669
rwrist -7.12059
rhand -15.2134 -32.383
rfingers 7.12502
rthumb 10.9589 -62.0769
lclavicle 7.49791e-015 -3.57812e-015
lhumerus -41.5288 24.8118 68.7387
lradius 15.3
lwrist -29.8256
lhand -15.3206 -14.8791
lfingers 7.12502
lthumb 10.8555 14.8203
rfemur -38.1646 -6.01249 18.9229
rtibia 74.8597
rfoot -5.01868 2.47729
rtoes -14.4228
lfemur -29.7268 0.91147 -26.216
ltibia 34.5241
lfoot -18.9961 -1.47779
ltoes -1.19027
214
root -0.411176 16.4844 2.16338 15.6356 -2.74892 1.65205
lowerback -14.8589 -0.213816 -3.71275
upperback -4.87019 0.294063 -1.09995
thorax 3.15793 0.1485 0.995131
lowerneck -4.75997 -0.541936 -0.831396
upperneck 11.5542 -0.947401 2.49364
head 4.71054 -0.376206 0.944315
rclavicle -1.25856e-014 -1.19271e-015
rhumerus -44.3338 -11.6831 -81.2361
rradius 25.756
rwrist -4.98629
rhand -14.8578 -33.0789
rfingers 7.12502
rthumb 11.3019 -62.7544
lclavicle -1.25856e-014 -1.19271e-015
lhumerus -39.1568 22.3787 71.5455
lradius 16.244
lwrist -27.2355
lhand -15.5626 -14.6305
lfingers 7.12502
lthumb 10.6221 15.0811
rfemur -39.4017 -5.85601 19.2817
rtibia 74.108
rfoot -6.12386 1.97334
rtoes -13.1757
lfemur -28.8632 1.35821 -26.1947
ltibia 34.5164
lfoot -19.7315 -1.96047
ltoes -0.701334
215
root -0.411269 16.4748 2.36145 15.5346 -2.36176 1.61551
lowerback -14.8104 -0.35591 -3.71364
upperback -4.81161 0.101256 -0.967344
thorax 3.20161 0.0524558 1.10148
lowerneck -4.58666 -0.584969 -0.77254
upperneck 11.6318 -0.998094 2.36644
head 4.70276 -0.405792 0.887717
rclavicle 1.19892e-015 5.1684e-015
rhumerus -45.2154 -13.2735 -79.5769
rradius 23.8009
rwrist -2.87687
rhand -14.8234 -34.2321
rfingers 7.12502
rthumb 11.3351 -63.9058
lclavicle 1.19892e-015 5.1684e-015
lhumerus -36.8135 19.4708 74.3127
lradius 17.1878
lwrist -24.0796
lhand -15.7163 -14.2588
lfingers 7.12502
lthumb 10.4738 15.4603
rfemur -40.4992 -5.88181 19.5665
rtibia 73.1873
rfoot -7.44665 1.61122
rtoes -11.2793
lfemur -27.9874 1.85292 -26.2144
ltibia 34.5671
lfoot -20.491 -2.85372
ltoes 0.475495
